<svg width="181" height="401" viewBox="0 0 181 401" fill="none" xmlns="http://www.w3.org/2000/svg">
<path d="M139.04 388.152L142.88 324.169L153.482 306.07C153.482 306.07 129.351 315.941 88.9508 315.941C48.5501 315.941 24.7845 306.252 24.7845 306.252L36.6669 325.995L40.8704 388.152C40.8704 394.815 62.846 400.217 89.9555 400.217C117.064 400.217 139.04 394.815 139.04 388.152Z" fill="#D34A47"/>
<path d="M126.927 89.3601L134.987 57.503L179.62 10.5392L167.856 0.519653L120.603 50.5478L111.245 88.6087C104.465 88.3794 97.3889 88.257 90.109 88.257C40.3433 88.257 0 93.9287 0 100.923C0 107.919 40.3433 113.59 90.109 113.59C139.874 113.59 180.217 107.919 180.217 100.923C180.217 95.7725 158.337 91.3391 126.927 89.3601Z" fill="#D34A47"/>
<path d="M122.239 107.201C122.239 107.201 120.494 107.592 115.359 107.614C110.223 107.635 106.576 107.581 105.124 106.258C104.733 105.902 104.52 105.197 104.522 104.719C104.526 103.81 105.171 103.275 105.993 102.939L106.771 104.159C106.433 104.276 106.24 104.414 106.239 104.561C106.236 105.251 111.49 105.724 115.509 105.673C119.529 105.624 124.385 105.292 124.39 104.612C124.39 104.406 124.022 104.212 123.383 104.059L124.157 102.848C125.199 103.171 126.108 103.796 126.106 104.877C126.096 106.715 123.757 106.995 122.239 107.201Z" fill="white"/>
<path d="M179.532 10.6318C180.654 9.33555 178.951 6.02 175.728 3.22734C172.504 0.436081 168.98 -0.776646 167.856 0.519572C166.733 1.81579 168.437 5.13133 171.661 7.92259C174.884 10.7145 178.409 11.9287 179.532 10.6318Z" fill="#D34A47"/>
<path d="M136.893 231.867C135.836 221.689 159.154 206.95 153.17 206.478C140.287 207.215 133.875 221.576 127.393 236.616C125.018 242.129 116.89 265.635 111.56 262.741C106.231 259.849 118.469 240.519 121.899 229.04C117.941 231.942 103.426 243.22 99.6851 232.658C93.6709 237.766 80.8198 240.533 82.2696 227.116C79.0701 232.784 71.8893 240.696 63.27 237.408C51.9507 233.091 69.8289 197.034 74.2744 198.854C78.7206 200.672 73.3772 208.886 71.9777 212.075C68.8999 219.095 65.3445 227.919 67.7197 229.726C71.7888 232.821 82.8618 218.018 83.108 217.693C85.179 214.956 91.0792 197.056 95.8346 199.112C100.59 201.167 83.9734 224.801 90.1863 229.492C91.4393 230.438 96.5662 228.908 99.6851 225.534C101.703 223.351 101.009 218.516 107.735 202.475C114.462 186.434 120.457 166.457 125.07 167.979C129.683 169.5 125.881 179.753 124.226 183.576C116.46 201.515 103.031 231.151 109.364 228.908C115.697 226.665 118.995 226.533 125.197 219.276C131.398 212.019 131.113 200.065 135.246 200.319C139.381 200.574 138.687 204.406 137.684 207.325C141.753 202.669 156.969 192.864 160.643 202.575C164.994 214.072 138.872 230.679 145.385 229.832C151.735 229.006 162.023 222.49 166.415 216.566L178.506 107.869C178.506 107.869 166.34 117.938 88.9389 117.938C11.5373 117.938 0.629837 108.079 0.629837 108.079L10.9232 207.293C16.3868 191.765 29.361 160.355 49.8118 161.41C59.1146 161.889 71.5334 179.802 60.8955 180.409C56.3927 180.665 55.9356 171.468 50.6035 170.117C46.7559 169.142 41.3991 172.27 37.9371 175.66C31.0329 182.417 16.1837 209.076 18.1458 222.367C20.6455 239.312 41.5286 216.479 45.0621 209.7C47.5505 204.925 49.2316 190.777 54.674 192.261C60.1172 193.746 54.1993 208.347 50.254 221.256C45.822 235.751 43.492 251.042 37.9371 249.283C32.3815 247.525 41.431 228.812 41.1034 225.534C35.8817 230.351 26.262 242.548 13.955 236.511L20.3476 298.122C20.3476 298.122 37.3378 311.547 88.5193 311.547C139.701 311.547 157.32 298.332 157.32 298.332L165.258 226.971C158.763 233.295 138.209 244.525 136.893 231.867Z" fill="#D34A47"/>
</svg>
