<svg width="329" height="329" viewBox="0 0 329 329" fill="none" xmlns="http://www.w3.org/2000/svg">
<path d="M0.694641 0H329V328.305H0.694641V0Z" fill="#F7DF1E"/>
<path d="M87.0181 274.356L112.142 259.151C116.989 267.745 121.398 275.016 131.975 275.016C142.112 275.016 148.504 271.05 148.504 255.625V150.724H179.356V256.061C179.356 288.016 160.625 302.561 133.297 302.561C108.616 302.561 94.2898 289.779 87.0176 274.353" fill="black"/>
<path d="M196.115 271.05L221.236 256.505C227.849 267.305 236.443 275.238 251.649 275.238C264.432 275.238 272.584 268.846 272.584 260.031C272.584 249.453 264.21 245.706 250.106 239.537L242.395 236.229C220.135 226.755 205.369 214.854 205.369 189.731C205.369 166.591 222.999 148.96 250.548 148.96C270.161 148.96 284.266 155.792 294.402 173.643L270.38 189.069C265.091 179.593 259.363 175.848 250.548 175.848C241.512 175.848 235.782 181.577 235.782 189.069C235.782 198.325 241.512 202.072 254.734 207.803L262.446 211.108C288.672 222.348 303.438 233.807 303.438 259.59C303.438 287.359 281.62 302.564 252.31 302.564C223.661 302.564 205.149 288.901 196.115 271.05" fill="black"/>
</svg>
