<svg width="401" height="246" viewBox="0 0 401 246" fill="none" xmlns="http://www.w3.org/2000/svg">
<path d="M198.198 245.124C196.841 245.124 195.574 244.762 194.398 244.129L182.363 236.981C180.554 235.985 181.459 235.623 182.001 235.442C184.445 234.628 184.897 234.447 187.431 232.999C187.702 232.818 188.064 232.909 188.335 233.09L197.565 238.609C197.927 238.79 198.379 238.79 198.651 238.609L234.754 217.707C235.116 217.526 235.297 217.164 235.297 216.712V174.998C235.297 174.546 235.116 174.184 234.754 174.003L198.651 153.191C198.289 153.01 197.836 153.01 197.565 153.191L161.461 174.003C161.099 174.184 160.918 174.636 160.918 174.998V216.712C160.918 217.074 161.099 217.526 161.461 217.707L171.324 223.408C176.663 226.122 180.011 222.956 180.011 219.789V178.618C180.011 178.075 180.463 177.532 181.097 177.532H185.711C186.254 177.532 186.797 177.984 186.797 178.618V219.789C186.797 226.937 182.906 231.099 176.12 231.099C174.039 231.099 172.41 231.099 167.795 228.837L158.294 223.408C155.942 222.051 154.494 219.517 154.494 216.803V175.089C154.494 172.374 155.942 169.841 158.294 168.483L194.398 147.581C196.66 146.315 199.737 146.315 201.999 147.581L238.102 168.483C240.455 169.841 241.903 172.374 241.903 175.089V216.803C241.903 219.517 240.455 222.051 238.102 223.408L201.999 244.31C200.822 244.853 199.465 245.124 198.198 245.124ZM209.328 216.441C193.493 216.441 190.236 209.202 190.236 203.049C190.236 202.506 190.688 201.963 191.321 201.963H196.027C196.57 201.963 197.022 202.325 197.022 202.868C197.746 207.664 199.827 210.016 209.418 210.016C217.019 210.016 220.277 208.297 220.277 204.225C220.277 201.872 219.372 200.153 207.518 198.977C197.655 197.982 191.502 195.81 191.502 187.938C191.502 180.608 197.655 176.265 207.971 176.265C219.553 176.265 225.253 180.246 225.977 188.933C225.977 189.205 225.887 189.476 225.706 189.747C225.525 189.928 225.253 190.109 224.982 190.109H220.277C219.824 190.109 219.372 189.747 219.281 189.295C218.196 184.318 215.39 182.69 207.971 182.69C199.646 182.69 198.651 185.585 198.651 187.757C198.651 190.381 199.827 191.195 211.047 192.643C222.177 194.091 227.425 196.172 227.425 203.954C227.335 211.916 220.82 216.441 209.328 216.441Z" fill="#539E43"/>
<path d="M86.1776 81.9796C86.1776 80.3509 85.2728 78.8127 83.825 77.9983L45.4593 55.9199C44.8259 55.558 44.102 55.377 43.3781 55.2865H43.0162C42.2923 55.2865 41.5684 55.558 40.935 55.9199L2.56929 77.9983C1.12153 78.8127 0.216675 80.3509 0.216675 81.9796L0.30716 141.338C0.30716 142.152 0.759586 142.967 1.48347 143.329C2.20735 143.781 3.1122 143.781 3.7456 143.329L26.5479 130.299C27.9956 129.484 28.9005 127.946 28.9005 126.317V98.5384C28.9005 96.9097 29.8053 95.3714 31.2531 94.5571L40.935 88.947C41.6589 88.4946 42.4733 88.3136 43.2876 88.3136C44.102 88.3136 44.9164 88.4946 45.5498 88.947L55.2317 94.5571C56.6794 95.3714 57.5843 96.9097 57.5843 98.5384V126.317C57.5843 127.946 58.4892 129.484 59.9369 130.299L82.7392 143.329C83.4631 143.781 84.3679 143.781 85.0918 143.329C85.8157 142.967 86.2681 142.152 86.2681 141.338L86.1776 81.9796Z" fill="#333333"/>
<path d="M270.586 0.271456C269.863 -0.0904852 268.958 -0.0904852 268.324 0.271456C267.6 0.723882 267.148 1.44776 267.148 2.26213V61.0775C267.148 61.6204 266.877 62.1633 266.334 62.5253C265.791 62.7967 265.248 62.7967 264.705 62.5253L255.113 57.0057C253.666 56.1913 251.947 56.1913 250.499 57.0057L212.133 79.1746C210.685 79.9889 209.78 81.5272 209.78 83.1559V127.403C209.78 129.032 210.685 130.57 212.133 131.385L250.499 153.553C251.947 154.368 253.666 154.368 255.113 153.553L293.479 131.385C294.927 130.57 295.832 129.032 295.832 127.403V17.1017C295.832 15.3825 294.927 13.8442 293.479 13.0299L270.586 0.271456ZM267.058 112.835C267.058 113.287 266.877 113.649 266.515 113.83L253.394 121.431C253.032 121.612 252.58 121.612 252.218 121.431L239.098 113.83C238.736 113.649 238.555 113.197 238.555 112.835V97.6335C238.555 97.1811 238.736 96.8192 239.098 96.6382L252.218 89.0374C252.58 88.8565 253.032 88.8565 253.394 89.0374L266.515 96.6382C266.877 96.8192 267.058 97.2716 267.058 97.6335V112.835Z" fill="#333333"/>
<path d="M398.261 97.2715C399.709 96.4572 400.523 94.9189 400.523 93.2902V82.5224C400.523 80.8937 399.618 79.3555 398.261 78.5411L360.167 56.4627C358.719 55.6483 357 55.6483 355.552 56.4627L317.186 78.6316C315.739 79.4459 314.834 80.9842 314.834 82.6129V126.86C314.834 128.489 315.739 130.027 317.186 130.842L355.281 152.558C356.728 153.372 358.448 153.372 359.805 152.558L382.879 139.709C383.602 139.347 384.055 138.533 384.055 137.718C384.055 136.904 383.602 136.09 382.879 135.728L344.332 113.559C343.608 113.106 343.156 112.383 343.156 111.568V97.724C343.156 96.9096 343.608 96.0952 344.332 95.7333L356.366 88.8564C357.09 88.404 357.995 88.404 358.719 88.8564L370.754 95.7333C371.477 96.1857 371.93 96.9096 371.93 97.724V108.582C371.93 109.397 372.382 110.211 373.106 110.573C373.83 111.025 374.735 111.025 375.459 110.573L398.261 97.2715Z" fill="#333333"/>
<path d="M357.271 95.1903C357.543 95.0093 357.905 95.0093 358.176 95.1903L365.506 99.4431C365.777 99.6241 365.958 99.8955 365.958 100.257V108.763C365.958 109.125 365.777 109.396 365.506 109.577L358.176 113.83C357.905 114.011 357.543 114.011 357.271 113.83L349.942 109.577C349.671 109.396 349.49 109.125 349.49 108.763V100.257C349.49 99.8955 349.671 99.6241 349.942 99.4431L357.271 95.1903Z" fill="#539E43"/>
<mask id="mask0" mask-type="alpha" maskUnits="userSpaceOnUse" x="105" y="56" width="86" height="98">
<path d="M150.332 56.6437C148.884 55.8294 147.165 55.8294 145.717 56.6437L107.623 78.6316C106.175 79.446 105.36 80.9843 105.36 82.613V126.679C105.36 128.308 106.265 129.846 107.623 130.661L145.717 152.649C147.165 153.463 148.884 153.463 150.332 152.649L188.426 130.661C189.874 129.846 190.688 128.308 190.688 126.679V82.613C190.688 80.9843 189.783 79.446 188.426 78.6316L150.332 56.6437Z" fill="white"/>
</mask>
<g mask="url(#mask0)">
<path d="M150.332 56.6437C148.884 55.8294 147.165 55.8294 145.717 56.6437L107.623 78.6316C106.175 79.446 105.36 80.9843 105.36 82.613V126.679C105.36 128.308 106.265 129.846 107.623 130.661L145.717 152.649C147.165 153.463 148.884 153.463 150.332 152.649L188.426 130.661C189.874 129.846 190.688 128.308 190.688 126.679V82.613C190.688 80.9843 189.783 79.446 188.426 78.6316L150.332 56.6437Z" fill="url(#paint0_linear)"/>
<path d="M188.516 78.6316L150.241 56.6437C149.879 56.4627 149.427 56.2818 149.065 56.1913L106.175 129.665C106.537 130.118 106.989 130.48 107.442 130.751L145.717 152.739C146.803 153.372 148.07 153.553 149.246 153.191L189.512 79.5365C189.24 79.1745 188.878 78.9031 188.516 78.6316Z" fill="url(#paint1_linear)"/>
<path fill-rule="evenodd" clip-rule="evenodd" d="M188.607 130.661C189.693 130.027 190.507 128.941 190.869 127.765L148.884 56.1009C147.798 55.9199 146.622 56.0104 145.626 56.6438L107.623 78.5412L148.613 153.282C149.155 153.192 149.789 153.011 150.332 152.739L188.607 130.661Z" fill="url(#paint2_linear)"/>
<path fill-rule="evenodd" clip-rule="evenodd" d="M188.607 130.661L150.422 152.648C149.879 152.92 149.336 153.101 148.703 153.191L149.427 154.549L191.774 130.027V129.484L190.688 127.675C190.507 128.941 189.693 130.027 188.607 130.661Z" fill="url(#paint3_linear)"/>
<path fill-rule="evenodd" clip-rule="evenodd" d="M188.607 130.661L150.422 152.648C149.879 152.92 149.336 153.101 148.703 153.191L149.427 154.549L191.774 130.027V129.484L190.688 127.675C190.507 128.941 189.693 130.027 188.607 130.661Z" fill="url(#paint4_linear)"/>
</g>
<defs>
<linearGradient id="paint0_linear" x1="163.544" y1="73.0348" x2="121.787" y2="138.644" gradientUnits="userSpaceOnUse">
<stop stop-color="#41873F"/>
<stop offset="0.3288" stop-color="#418B3D"/>
<stop offset="0.6352" stop-color="#419637"/>
<stop offset="0.9319" stop-color="#3FA92D"/>
<stop offset="1" stop-color="#3FAE2A"/>
</linearGradient>
<linearGradient id="paint1_linear" x1="142.24" y1="109.807" x2="246.813" y2="52.9928" gradientUnits="userSpaceOnUse">
<stop offset="0.1376" stop-color="#41873F"/>
<stop offset="0.4032" stop-color="#54A044"/>
<stop offset="0.7136" stop-color="#66B848"/>
<stop offset="0.9081" stop-color="#6CC04A"/>
</linearGradient>
<linearGradient id="paint2_linear" x1="103.969" y1="104.648" x2="192.117" y2="104.648" gradientUnits="userSpaceOnUse">
<stop offset="0.0919165" stop-color="#6CC04A"/>
<stop offset="0.2864" stop-color="#66B848"/>
<stop offset="0.5968" stop-color="#54A044"/>
<stop offset="0.8624" stop-color="#41873F"/>
</linearGradient>
<linearGradient id="paint3_linear" x1="103.969" y1="141.186" x2="192.117" y2="141.186" gradientUnits="userSpaceOnUse">
<stop offset="0.0919165" stop-color="#6CC04A"/>
<stop offset="0.2864" stop-color="#66B848"/>
<stop offset="0.5968" stop-color="#54A044"/>
<stop offset="0.8624" stop-color="#41873F"/>
</linearGradient>
<linearGradient id="paint4_linear" x1="204.959" y1="70.9515" x2="182.628" y2="187.967" gradientUnits="userSpaceOnUse">
<stop stop-color="#41873F"/>
<stop offset="0.3288" stop-color="#418B3D"/>
<stop offset="0.6352" stop-color="#419637"/>
<stop offset="0.9319" stop-color="#3FA92D"/>
<stop offset="1" stop-color="#3FAE2A"/>
</linearGradient>
</defs>
</svg>
