<svg width="401" height="356" viewBox="0 0 401 356" fill="none" xmlns="http://www.w3.org/2000/svg">
<path d="M329.348 115.33C325.2 113.902 320.901 112.551 316.474 111.273C317.202 108.304 317.869 105.373 318.463 102.492C328.209 55.1859 321.837 17.0757 300.078 4.52814C279.215 -7.50327 245.094 5.0414 210.633 35.0313C207.319 37.9151 203.996 40.9683 200.675 44.1682C198.462 42.0511 196.252 40.0052 194.048 38.0482C157.932 5.98108 121.732 -7.53246 99.995 5.05137C79.1513 17.1177 72.9786 52.9449 81.751 97.7774C82.5982 102.108 83.5884 106.53 84.7082 111.026C79.5848 112.48 74.6387 114.031 69.9061 115.68C27.5645 130.443 0.523193 153.578 0.523193 177.577C0.523193 202.362 29.5521 227.222 73.6542 242.296C77.1345 243.486 80.7459 244.61 84.4676 245.678C83.2595 250.541 82.2088 255.306 81.3268 259.954C72.9622 304.008 79.4944 338.989 100.283 350.979C121.755 363.362 157.791 350.634 192.882 319.961C195.655 317.536 198.439 314.965 201.227 312.27C204.841 315.75 208.45 319.044 212.039 322.134C246.028 351.382 279.598 363.193 300.367 351.169C321.818 338.752 328.79 301.174 319.739 255.454C319.048 251.963 318.243 248.395 317.34 244.765C319.871 244.017 322.355 243.244 324.777 242.441C370.626 227.251 400.456 202.693 400.456 177.577C400.456 153.492 372.543 130.2 329.348 115.33ZM319.404 226.224C317.217 226.948 314.974 227.648 312.687 228.326C307.626 212.303 300.794 195.264 292.435 177.66C300.412 160.475 306.979 143.654 311.899 127.735C315.99 128.918 319.961 130.167 323.787 131.485C360.796 144.225 383.371 163.062 383.371 177.577C383.371 193.037 358.991 213.107 319.404 226.224ZM302.978 258.772C306.981 278.989 307.552 297.267 304.901 311.556C302.519 324.395 297.729 332.955 291.806 336.384C279.203 343.679 252.249 334.196 223.181 309.182C219.849 306.315 216.493 303.253 213.126 300.013C224.395 287.688 235.657 273.36 246.649 257.448C265.983 255.732 284.249 252.927 300.814 249.098C301.629 252.389 302.354 255.617 302.978 258.772ZM136.869 335.123C124.555 339.472 114.748 339.597 108.819 336.178C96.2042 328.902 90.9599 300.816 98.1135 263.14C98.9329 258.826 99.9081 254.394 101.032 249.863C117.415 253.486 135.547 256.093 154.928 257.664C165.994 273.235 177.582 287.547 189.259 300.079C186.708 302.542 184.166 304.887 181.639 307.097C166.123 320.66 150.573 330.283 136.869 335.123ZM79.1797 226.129C59.6786 219.464 43.5739 210.801 32.5348 201.348C22.6155 192.853 17.6075 184.42 17.6075 177.577C17.6075 163.014 39.319 144.439 75.53 131.814C79.9237 130.282 84.5231 128.838 89.2962 127.482C94.3007 143.761 100.866 160.781 108.788 177.992C100.763 195.459 94.1049 212.75 89.0513 229.22C85.6486 228.242 82.3519 227.213 79.1797 226.129ZM98.5178 94.4964C91.0019 56.085 95.9935 27.1088 108.555 19.8377C121.934 12.0918 151.521 23.1359 182.704 50.8242C184.697 52.594 186.698 54.4463 188.705 56.3626C177.085 68.8397 165.603 83.0444 154.635 98.5235C135.826 100.267 117.821 103.067 101.267 106.818C100.226 102.631 99.3045 98.5178 98.5178 94.4964ZM271.031 137.094C267.074 130.259 263.011 123.585 258.869 117.093C271.63 118.707 283.855 120.848 295.336 123.468C291.89 134.515 287.593 146.065 282.536 157.906C278.909 151.019 275.072 144.074 271.031 137.094ZM200.681 68.5727C208.561 77.1103 216.453 86.6423 224.215 96.9844C216.393 96.6149 208.474 96.4227 200.49 96.4227C192.581 96.4227 184.72 96.6107 176.947 96.9737C184.717 86.7277 192.677 77.2085 200.681 68.5727ZM129.88 137.212C125.926 144.067 122.161 150.974 118.59 157.893C113.615 146.094 109.358 134.491 105.881 123.287C117.292 120.734 129.46 118.646 142.139 117.064C137.939 123.615 133.843 130.338 129.88 137.211V137.212ZM142.505 239.308C129.405 237.847 117.054 235.866 105.646 233.383C109.178 221.98 113.528 210.129 118.609 198.076C122.189 204.99 125.97 211.9 129.947 218.769H129.948C133.999 225.768 138.196 232.623 142.505 239.308ZM201.153 287.785C193.056 279.048 184.979 269.384 177.09 258.988C184.748 259.288 192.555 259.442 200.49 259.442C208.641 259.442 216.7 259.259 224.632 258.905C216.844 269.488 208.98 279.168 201.153 287.785ZM282.699 197.461C288.045 209.645 292.551 221.434 296.129 232.643C284.533 235.288 272.013 237.419 258.822 239.002C262.974 232.423 267.072 225.635 271.099 218.652C275.173 211.587 279.042 204.512 282.699 197.461ZM256.3 210.116C250.048 220.956 243.63 231.304 237.114 241.072C225.247 241.92 212.986 242.357 200.49 242.357C188.044 242.357 175.938 241.971 164.28 241.214C157.502 231.318 150.944 220.94 144.732 210.21H144.734C138.538 199.509 132.836 188.717 127.669 177.987C132.835 167.231 138.522 156.427 144.682 145.746L144.68 145.748C150.856 135.038 157.356 124.71 164.072 114.876C175.966 113.977 188.163 113.508 200.489 113.508H200.49C212.871 113.508 225.084 113.98 236.974 114.887C243.587 124.649 250.043 134.944 256.244 145.655C262.515 156.487 268.275 167.219 273.485 177.744C268.291 188.45 262.543 199.289 256.3 210.116ZM291.544 19.3295C304.937 27.0526 310.145 58.2 301.731 99.0438C301.194 101.65 300.589 104.305 299.933 106.995C283.341 103.166 265.323 100.317 246.459 98.5477C235.47 82.8985 224.082 68.6717 212.651 56.3548C215.725 53.3984 218.793 50.5794 221.85 47.9191C251.375 22.2239 278.971 12.079 291.544 19.3295ZM200.49 141.864C220.213 141.864 236.202 157.853 236.202 177.577C236.202 197.3 220.213 213.289 200.49 213.289C180.767 213.289 164.777 197.3 164.777 177.577C164.777 157.853 180.767 141.864 200.49 141.864Z" fill="#00D8FF"/>
</svg>
