<svg width="400" height="300" viewBox="0 0 400 300" fill="none" xmlns="http://www.w3.org/2000/svg">
<path d="M344.431 172.445C330.477 172.518 318.348 175.878 308.193 180.847C304.467 173.467 300.741 166.892 300.083 162.07C299.352 156.444 298.476 153.01 299.352 146.289C300.229 139.567 304.174 129.996 304.101 129.265C304.028 128.535 303.225 125.101 295.188 125.028C287.151 124.955 280.21 126.562 279.407 128.681C278.603 130.799 277.069 135.622 276.046 140.59C274.658 147.896 259.972 173.979 251.57 187.641C248.867 182.308 246.529 177.632 246.017 173.906C245.287 168.28 244.41 164.846 245.287 158.124C246.164 151.403 250.109 141.832 250.036 141.101C249.963 140.371 249.159 136.937 241.122 136.864C233.086 136.79 226.145 138.398 225.341 140.517C224.537 142.635 223.661 147.604 221.98 152.426C220.3 157.248 200.792 200.792 195.678 212.044C193.048 217.816 190.783 222.419 189.176 225.56C189.176 225.56 189.102 225.779 188.883 226.145C187.495 228.848 186.691 230.309 186.691 230.309C186.691 230.309 186.691 230.309 186.691 230.382C185.596 232.355 184.427 234.182 183.842 234.182C183.404 234.182 182.6 228.921 183.988 221.761C186.911 206.637 193.851 183.112 193.778 182.308C193.778 181.869 195.094 177.778 189.249 175.659C183.55 173.54 181.504 177.047 180.993 177.047C180.481 177.047 180.116 178.289 180.116 178.289C180.116 178.289 186.472 151.841 167.988 151.841C156.444 151.841 140.517 164.481 132.626 175.878C127.658 178.582 117.064 184.354 105.739 190.564C101.429 192.975 96.9718 195.386 92.8073 197.651C92.5151 197.359 92.2228 196.993 91.9306 196.701C69.5738 172.81 28.2209 155.933 29.9744 123.859C30.6319 112.169 34.6503 81.4829 109.392 44.2215C170.91 13.901 219.861 22.303 228.337 40.9337C240.465 67.5282 202.107 116.918 138.544 124.078C114.287 126.781 101.575 117.429 98.36 113.922C94.9992 110.269 94.4877 110.05 93.2457 110.781C91.2 111.877 92.5151 115.164 93.2457 117.064C95.1453 122.032 102.963 130.799 116.187 135.11C127.877 138.909 156.298 141.028 190.71 127.731C229.213 112.826 259.315 71.4004 250.474 36.6962C241.634 1.4805 183.184 -10.1363 127.877 9.51727C94.9992 21.2071 59.3451 39.6186 33.7005 63.5828C3.23386 92.0768 -1.5882 116.845 0.384464 127.219C7.47143 164.042 58.2492 188.007 78.5603 205.761C77.5375 206.345 76.5877 206.857 75.784 207.295C65.6284 212.336 26.9058 232.574 17.2617 253.981C6.30245 278.238 19.0152 295.626 27.4172 297.964C53.5002 305.197 80.3138 292.192 94.7069 270.712C109.1 249.232 107.347 221.323 100.698 208.537C100.625 208.391 100.552 208.245 100.406 208.099C103.036 206.564 105.739 204.957 108.369 203.423C113.557 200.354 118.671 197.505 123.055 195.167C120.571 201.961 118.744 210.071 117.867 221.761C116.772 235.497 122.397 253.324 129.776 260.338C133.064 263.406 136.937 263.479 139.421 263.479C148.042 263.479 151.914 256.319 156.225 247.844C161.485 237.469 166.234 225.414 166.234 225.414C166.234 225.414 160.316 258 176.39 258C182.235 258 188.153 250.401 190.783 246.529V246.602C190.783 246.602 190.929 246.383 191.221 245.871C191.806 244.922 192.171 244.337 192.171 244.337V244.191C194.509 240.1 199.769 230.821 207.587 215.405C217.67 195.532 227.387 170.691 227.387 170.691C227.387 170.691 228.263 176.755 231.259 186.838C233.012 192.756 236.666 199.258 239.588 205.541C237.25 208.829 235.789 210.656 235.789 210.656C235.789 210.656 235.789 210.656 235.862 210.729C233.962 213.213 231.917 215.916 229.652 218.546C221.688 228.044 212.19 238.931 210.875 242.072C209.341 245.798 209.706 248.502 212.628 250.693C214.747 252.301 218.546 252.52 222.419 252.301C229.579 251.789 234.62 250.036 237.104 248.94C240.976 247.552 245.506 245.433 249.744 242.291C257.561 236.52 262.31 228.264 261.872 217.377C261.653 211.386 259.68 205.395 257.269 199.77C258 198.747 258.657 197.724 259.388 196.701C271.735 178.655 281.306 158.855 281.306 158.855C281.306 158.855 282.183 164.919 285.178 175.002C286.64 180.116 289.635 185.669 292.265 191.075C280.649 200.5 273.489 211.459 270.931 218.619C266.329 231.917 269.909 237.908 276.703 239.296C279.772 239.953 284.156 238.492 287.37 237.104C291.462 235.789 296.284 233.524 300.887 230.163C308.704 224.391 316.23 216.355 315.791 205.468C315.572 200.5 314.257 195.605 312.43 190.856C322.294 186.765 335.006 184.5 351.226 186.399C386.003 190.491 392.871 212.19 391.556 221.323C390.241 230.455 382.935 235.424 380.524 236.958C378.113 238.492 377.309 239.004 377.528 240.1C377.82 241.707 378.989 241.634 381.035 241.342C383.885 240.83 399.301 233.962 399.958 217.158C401.054 195.678 380.597 172.225 344.431 172.445ZM76.1493 262.895C64.6056 275.461 48.532 280.21 41.5912 276.192C34.1389 271.881 37.0614 253.324 51.2353 240.026C59.8566 231.917 70.9619 224.391 78.3411 219.788C80.0216 218.766 82.5057 217.304 85.5012 215.478C86.0126 215.186 86.3049 215.039 86.3049 215.039C86.8894 214.674 87.4738 214.309 88.0583 213.943C93.2457 232.939 88.2775 249.671 76.1493 262.895ZM160.17 205.761C156.152 215.551 147.75 240.611 142.635 239.223C138.252 238.054 135.548 219.058 141.759 200.281C144.9 190.856 151.549 179.605 155.421 175.221C161.704 168.207 168.645 165.869 170.326 168.718C172.444 172.445 162.654 199.623 160.17 205.761ZM229.505 238.931C227.825 239.807 226.218 240.392 225.487 239.953C224.976 239.661 226.218 238.492 226.218 238.492C226.218 238.492 234.912 229.14 238.346 224.903C240.319 222.419 242.657 219.496 245.141 216.208V217.158C245.141 228.337 234.328 235.862 229.505 238.931ZM282.987 226.729C281.745 225.853 281.964 222.93 286.128 213.797C287.736 210.217 291.535 204.226 298.037 198.454C298.768 200.792 299.279 203.057 299.206 205.176C299.133 219.277 289.051 224.537 282.987 226.729Z" fill="#CD6799"/>
</svg>
