<svg width="352" height="398" viewBox="0 0 352 398" fill="none" xmlns="http://www.w3.org/2000/svg">
<path d="M176.023 0L351.523 99.2734V297.886L176.023 397.16L0.523193 297.886V99.2734L176.023 0Z" fill="white"/>
<path d="M320.198 290.999L181.851 369.345V308.416L268.078 260.932L320.198 290.999ZM329.669 282.456V118.744L279.072 147.95V253.25L329.669 282.456ZM31.3185 290.999L169.666 369.279V308.35L83.4387 260.932L31.3185 290.999ZM21.8481 282.456V118.744L72.4451 147.95V253.25L21.8481 282.456ZM27.7423 108.148L169.666 27.8813V86.8229L78.7366 136.824L78.0081 137.221L27.7423 108.148ZM323.708 108.148L181.851 27.8813V86.8229L272.714 136.89L273.442 137.287L323.708 108.148Z" fill="#8ED6FB"/>
<path d="M169.665 294.509L84.6307 247.687V155.036L169.665 204.11V294.509ZM181.851 294.509L266.886 247.753V155.036L181.851 204.11V294.509ZM90.3262 144.307L175.758 97.3528L261.124 144.307L175.758 193.58L90.3262 144.307Z" fill="#1C78C0"/>
</svg>
