<svg fill="none" height="701" viewBox="0 0 481 701" width="481" xmlns="http://www.w3.org/2000/svg" xmlns:xlink="http://www.w3.org/1999/xlink"><filter id="a" color-interpolation-filters="sRGB" filterUnits="userSpaceOnUse" height="700.217" width="480.217" x="0" y="0"><feFlood flood-opacity="0" result="BackgroundImageFix"/><feBlend in="SourceGraphic" in2="BackgroundImageFix" mode="normal" result="shape"/><feGaussianBlur result="effect1_foregroundBlur" stdDeviation="75"/></filter><g filter="url(#a)" opacity=".45"><path d="m289.04 538.152 3.84-63.983 10.602-18.099s-24.131 9.871-64.531 9.871c-40.401 0-64.167-9.689-64.167-9.689l11.883 19.743 4.203 62.157c0 6.663 21.976 12.065 49.085 12.065s49.085-5.402 49.085-12.065z" fill="#d34a47"/><path d="m276.927 239.36 8.06-31.857 44.633-46.964-11.764-10.019-47.253 50.028-9.358 38.061c-6.78-.23-13.856-.352-21.136-.352-49.766 0-90.109 5.672-90.109 12.666 0 6.996 40.343 12.667 90.109 12.667 49.765 0 90.108-5.671 90.108-12.667 0-5.15-21.88-9.584-53.29-11.563z" fill="#d34a47"/><path d="m272.239 257.201s-1.745.391-6.88.413c-5.136.021-8.783-.033-10.235-1.356-.391-.356-.604-1.061-.602-1.539.004-.909.649-1.444 1.471-1.78l.778 1.22c-.338.117-.531.255-.532.402-.003.69 5.251 1.163 9.27 1.112 4.02-.049 8.876-.381 8.881-1.061 0-.206-.368-.4-1.007-.553l.774-1.211c1.042.323 1.951.948 1.949 2.029-.01 1.838-2.349 2.118-3.867 2.324z" fill="#fff"/><g fill="#d34a47"><path d="m329.532 160.632c1.122-1.296-.581-4.612-3.804-7.405-3.224-2.791-6.748-4.004-7.872-2.707-1.123 1.296.581 4.611 3.805 7.403 3.223 2.792 6.748 4.006 7.871 2.709z"/><path d="m286.893 381.867c-1.058-10.178 22.261-24.917 16.277-25.389-12.883.737-19.295 15.098-25.777 30.138-2.375 5.513-10.503 29.019-15.833 26.125-5.33-2.892 6.909-22.222 10.339-33.701-3.958 2.902-18.473 14.18-22.214 3.618-6.014 5.108-18.865 7.875-17.415-5.542-3.2 5.668-10.381 13.58-19 10.292-11.319-4.317 6.559-40.374 11.004-38.554 4.447 1.818-.897 10.032-2.296 13.221-3.078 7.02-6.634 15.844-4.258 17.651 4.069 3.095 15.142-11.708 15.388-12.033 2.071-2.737 7.971-20.637 12.727-18.581 4.755 2.055-11.862 25.689-5.649 30.38 1.253.946 6.38-.584 9.499-3.958 2.018-2.183 1.324-7.018 8.05-23.059 6.727-16.041 12.722-36.018 17.335-34.496 4.613 1.521.811 11.774-.844 15.597-7.766 17.939-21.195 47.575-14.862 45.332s9.631-2.375 15.833-9.632c6.201-7.257 5.916-19.211 10.049-18.957 4.135.255 3.441 4.087 2.438 7.006 4.069-4.656 19.285-14.461 22.959-4.75 4.351 11.497-21.771 28.104-15.258 27.257 6.35-.826 16.638-7.342 21.03-13.266l12.091-108.697s-12.166 10.069-89.567 10.069c-77.402 0-88.309-9.859-88.309-9.859l10.293 99.214c5.464-15.528 18.438-46.938 38.889-45.883 9.303.479 21.721 18.392 11.083 18.999-4.502.256-4.959-8.941-10.291-10.292-3.848-.975-9.205 2.153-12.667 5.543-6.904 6.757-21.753 33.416-19.791 46.707 2.499 16.945 23.383-5.888 26.916-12.667 2.488-4.775 4.17-18.923 9.612-17.439 5.443 1.485-.475 16.086-4.42 28.995-4.432 14.495-6.762 29.786-12.317 28.027-5.556-1.758 3.494-20.471 3.166-23.749-5.221 4.817-14.841 17.014-27.148 10.977l6.393 61.611s16.99 13.425 68.171 13.425c51.182 0 68.801-13.215 68.801-13.215l7.938-71.361c-6.495 6.324-27.049 17.554-28.365 4.896z"/></g></g><path d="m290.04 484.152 3.84-63.983 10.602-18.099s-24.131 9.871-64.531 9.871c-40.401 0-64.167-9.689-64.167-9.689l11.883 19.743 4.203 62.157c0 6.663 21.976 12.065 49.085 12.065s49.085-5.402 49.085-12.065z" fill="#d34a47"/><path d="m277.927 185.36 8.06-31.857 44.633-46.964-11.764-10.0193-47.253 50.0283-9.358 38.061c-6.78-.23-13.856-.352-21.136-.352-49.766 0-90.109 5.672-90.109 12.666 0 6.996 40.343 12.667 90.109 12.667 49.765 0 90.108-5.671 90.108-12.667 0-5.15-21.88-9.584-53.29-11.563z" fill="#d34a47"/><path d="m273.239 203.201s-1.745.391-6.88.413c-5.136.021-8.783-.033-10.235-1.356-.391-.356-.604-1.061-.602-1.539.004-.909.649-1.444 1.471-1.78l.778 1.22c-.338.117-.531.255-.532.402-.003.69 5.251 1.163 9.27 1.112 4.02-.049 8.876-.381 8.881-1.061 0-.206-.368-.4-1.007-.553l.774-1.211c1.042.323 1.951.948 1.949 2.029-.01 1.838-2.349 2.118-3.867 2.324z" fill="#fff"/><g fill="#d34a47"><path d="m330.532 106.632c1.122-1.296-.581-4.612-3.804-7.4047-3.224-2.7912-6.748-4.0039-7.872-2.7077-1.123 1.2962.581 4.6114 3.805 7.4034 3.223 2.792 6.748 4.006 7.871 2.709z"/><path d="m287.893 327.867c-1.058-10.178 22.261-24.917 16.277-25.389-12.883.737-19.295 15.098-25.777 30.138-2.375 5.513-10.503 29.019-15.833 26.125-5.33-2.892 6.909-22.222 10.339-33.701-3.958 2.902-18.473 14.18-22.214 3.618-6.014 5.108-18.865 7.875-17.415-5.542-3.2 5.668-10.381 13.58-19 10.292-11.319-4.317 6.559-40.374 11.004-38.554 4.447 1.818-.897 10.032-2.296 13.221-3.078 7.02-6.634 15.844-4.258 17.651 4.069 3.095 15.142-11.708 15.388-12.033 2.071-2.737 7.971-20.637 12.727-18.581 4.755 2.055-11.862 25.689-5.649 30.38 1.253.946 6.38-.584 9.499-3.958 2.018-2.183 1.324-7.018 8.05-23.059 6.727-16.041 12.722-36.018 17.335-34.496 4.613 1.521.811 11.774-.844 15.597-7.766 17.939-21.195 47.575-14.862 45.332s9.631-2.375 15.833-9.632c6.201-7.257 5.916-19.211 10.049-18.957 4.135.255 3.441 4.087 2.438 7.006 4.069-4.656 19.285-14.461 22.959-4.75 4.351 11.497-21.771 28.104-15.258 27.257 6.35-.826 16.638-7.342 21.03-13.266l12.091-108.697s-12.166 10.069-89.567 10.069c-77.402 0-88.309-9.859-88.309-9.859l10.293 99.214c5.464-15.528 18.438-46.938 38.889-45.883 9.303.479 21.721 18.392 11.083 18.999-4.502.256-4.959-8.941-10.291-10.292-3.848-.975-9.205 2.153-12.667 5.543-6.904 6.757-21.753 33.416-19.791 46.707 2.499 16.945 23.383-5.888 26.916-12.667 2.488-4.775 4.17-18.923 9.612-17.439 5.443 1.485-.475 16.086-4.42 28.995-4.432 14.495-6.762 29.786-12.317 28.027-5.556-1.758 3.494-20.471 3.166-23.749-5.221 4.817-14.841 17.014-27.148 10.977l6.393 61.611s16.99 13.425 68.171 13.425c51.182 0 68.801-13.215 68.801-13.215l7.938-71.361c-6.495 6.324-27.049 17.554-28.365 4.896z"/></g></svg>