<svg fill="none" height="643" viewBox="0 0 684 643" width="684" xmlns="http://www.w3.org/2000/svg" xmlns:xlink="http://www.w3.org/1999/xlink"><filter id="a" color-interpolation-filters="sRGB" filterUnits="userSpaceOnUse" height="643" width="684" x="0" y="0"><feFlood flood-opacity="0" result="BackgroundImageFix"/><feBlend in="SourceGraphic" in2="BackgroundImageFix" mode="normal" result="shape"/><feGaussianBlur result="effect1_foregroundBlur" stdDeviation="75"/></filter><g filter="url(#a)" opacity=".45"><path d="m150 150h384v343h-384z" fill="#f7df1e"/></g><path d="m205.695 127h328.305v328.305h-328.305z" fill="#f7df1e"/><g fill="#000"><path d="m292.018 401.356 25.124-15.205c4.847 8.594 9.256 15.865 19.833 15.865 10.137 0 16.529-3.966 16.529-19.391v-104.901h30.852v105.337c0 31.955-18.731 46.5-46.059 46.5-24.681 0-39.007-12.782-46.279-28.208"/><path d="m401.115 398.05 25.121-14.545c6.613 10.8 15.207 18.733 30.413 18.733 12.783 0 20.935-6.392 20.935-15.207 0-10.578-8.374-14.325-22.478-20.494l-7.711-3.308c-22.26-9.474-37.026-21.375-37.026-46.498 0-23.14 17.63-40.771 45.179-40.771 19.613 0 33.718 6.832 43.854 24.683l-24.022 15.426c-5.289-9.476-11.017-13.221-19.832-13.221-9.036 0-14.766 5.729-14.766 13.221 0 9.256 5.73 13.003 18.952 18.734l7.712 3.305c26.226 11.24 40.992 22.699 40.992 48.482 0 27.769-21.818 42.974-51.128 42.974-28.649 0-47.161-13.663-56.195-31.514"/></g></svg>