<svg fill="none" height="454" viewBox="0 0 436 454" width="436" xmlns="http://www.w3.org/2000/svg" xmlns:xlink="http://www.w3.org/1999/xlink"><filter id="a" color-interpolation-filters="sRGB" filterUnits="userSpaceOnUse" height="453.826" width="435" x=".216675" y="0"><feFlood flood-opacity="0" result="BackgroundImageFix"/><feBlend in="SourceGraphic" in2="BackgroundImageFix" mode="normal" result="shape"/><feGaussianBlur result="effect1_foregroundBlur" stdDeviation="75"/></filter><linearGradient id="b"><stop offset=".0919165" stop-color="#6cc04a"/><stop offset=".2864" stop-color="#66b848"/><stop offset=".5968" stop-color="#54a044"/><stop offset=".8624" stop-color="#41873f"/></linearGradient><linearGradient id="c" gradientUnits="userSpaceOnUse" x1="148.015" x2="287.478" xlink:href="#b" y1="284.723" y2="284.723"/><linearGradient id="d"><stop offset="0" stop-color="#41873f"/><stop offset=".3288" stop-color="#418b3d"/><stop offset=".6352" stop-color="#419637"/><stop offset=".9319" stop-color="#3fa92d"/><stop offset="1" stop-color="#3fae2a"/></linearGradient><linearGradient id="e" gradientUnits="userSpaceOnUse" x1="183.544" x2="141.787" xlink:href="#d" y1="186.035" y2="251.644"/><linearGradient id="f" gradientUnits="userSpaceOnUse" x1="162.24" x2="266.813" y1="222.807" y2="165.993"><stop offset=".1376" stop-color="#41873f"/><stop offset=".4032" stop-color="#54a044"/><stop offset=".7136" stop-color="#66b848"/><stop offset=".9081" stop-color="#6cc04a"/></linearGradient><linearGradient id="g" gradientUnits="userSpaceOnUse" x1="123.969" x2="212.117" xlink:href="#b" y1="217.648" y2="217.648"/><linearGradient id="h" gradientUnits="userSpaceOnUse" x1="123.969" x2="212.117" xlink:href="#b" y1="254.186" y2="254.186"/><linearGradient id="i" gradientUnits="userSpaceOnUse" x1="224.959" x2="202.628" xlink:href="#d" y1="183.952" y2="300.967"/><mask id="j" height="154" maskUnits="userSpaceOnUse" width="136" x="150" y="150"><path d="m221.367 150.966c-2.29-1.288-5.01-1.288-7.301 0l-60.27 34.788c-2.291 1.289-3.579 3.722-3.579 6.299v69.719c0 2.577 1.431 5.011 3.579 6.299l60.27 34.788c2.291 1.289 5.011 1.289 7.301 0l60.271-34.788c2.29-1.288 3.579-3.722 3.579-6.299v-69.719c0-2.577-1.432-5.01-3.579-6.299z" fill="#fff"/></mask><mask id="k" height="98" maskUnits="userSpaceOnUse" width="86" x="125" y="169"><path d="m170.332 169.644c-1.448-.815-3.167-.815-4.615 0l-38.094 21.988c-1.448.814-2.263 2.352-2.263 3.981v44.066c0 1.629.905 3.167 2.263 3.982l38.094 21.988c1.448.814 3.167.814 4.615 0l38.094-21.988c1.448-.815 2.262-2.353 2.262-3.982v-44.066c0-1.629-.905-3.167-2.262-3.981z" fill="#fff"/></mask><g filter="url(#a)" opacity=".6"><g mask="url(#j)"><path d="m221.367 150.966c-2.29-1.288-5.01-1.288-7.301 0l-60.27 34.788c-2.291 1.289-3.579 3.722-3.579 6.299v69.719c0 2.577 1.431 5.011 3.579 6.299l60.27 34.788c2.291 1.289 5.011 1.289 7.301 0l60.271-34.788c2.29-1.288 3.579-3.722 3.579-6.299v-69.719c0-2.577-1.432-5.01-3.579-6.299z" fill="#3fff39"/><path d="m281.781 185.754-60.557-34.788c-.573-.286-1.288-.572-1.861-.716l-67.858 116.246c.573.716 1.288 1.289 2.004 1.718l60.557 34.788c1.718 1.002 3.722 1.289 5.583.716l63.706-116.532c-.429-.573-1.002-1.002-1.574-1.432z" fill="#5dfe59"/><g clip-rule="evenodd" fill-rule="evenodd"><path d="m281.924 268.071c1.718-1.002 3.006-2.72 3.579-4.581l-66.426-113.383c-1.718-.286-3.579-.143-5.154.859l-60.127 34.645 64.851 118.25c.859-.143 1.861-.429 2.72-.859z" fill="#84ff53"/><path d="m281.924 268.071-60.413 34.788c-.859.43-1.718.716-2.72.859l1.145 2.147 66.999-38.796v-.859l-1.718-2.863c-.287 2.004-1.575 3.722-3.293 4.724z" fill="url(#c)"/><path d="m281.924 268.071-60.413 34.788c-.859.43-1.718.716-2.72.859l1.145 2.147 66.999-38.796v-.859l-1.718-2.863c-.287 2.004-1.575 3.722-3.293 4.724z" fill="#7dff79"/></g></g></g><path d="m218.198 358.124c-1.357 0-2.624-.362-3.8-.995l-12.035-7.148c-1.809-.996-.905-1.358-.362-1.539 2.444-.814 2.896-.995 5.43-2.443.271-.181.633-.09.904.091l9.23 5.519c.362.181.814.181 1.086 0l36.103-20.902c.362-.181.543-.543.543-.995v-41.714c0-.452-.181-.814-.543-.995l-36.103-20.812c-.362-.181-.815-.181-1.086 0l-36.104 20.812c-.362.181-.543.633-.543.995v41.714c0 .362.181.814.543.995l9.863 5.701c5.339 2.714 8.687-.452 8.687-3.619v-41.171c0-.543.452-1.086 1.086-1.086h4.614c.543 0 1.086.452 1.086 1.086v41.171c0 7.148-3.891 11.31-10.677 11.31-2.081 0-3.71 0-8.325-2.262l-9.501-5.429c-2.352-1.357-3.8-3.891-3.8-6.605v-41.714c0-2.715 1.448-5.248 3.8-6.606l36.104-20.902c2.262-1.266 5.339-1.266 7.601 0l36.103 20.902c2.353 1.358 3.801 3.891 3.801 6.606v41.714c0 2.714-1.448 5.248-3.801 6.605l-36.103 20.902c-1.177.543-2.534.814-3.801.814zm11.13-28.683c-15.835 0-19.092-7.239-19.092-13.392 0-.543.452-1.086 1.085-1.086h4.706c.543 0 .995.362.995.905.724 4.796 2.805 7.148 12.396 7.148 7.601 0 10.859-1.719 10.859-5.791 0-2.353-.905-4.072-12.759-5.248-9.863-.995-16.016-3.167-16.016-11.039 0-7.33 6.153-11.673 16.469-11.673 11.582 0 17.282 3.981 18.006 12.668 0 .272-.09.543-.271.814-.181.181-.453.362-.724.362h-4.705c-.453 0-.905-.362-.996-.814-1.086-4.977-3.891-6.605-11.31-6.605-8.325 0-9.32 2.895-9.32 5.067 0 2.624 1.176 3.438 12.396 4.886 11.13 1.448 16.378 3.529 16.378 11.311-.091 7.962-6.605 12.487-18.097 12.487z" fill="#539e43"/><g fill="#333"><path d="m106.178 194.98c0-1.629-.905-3.167-2.353-3.982l-38.3657-22.078c-.6334-.362-1.3573-.543-2.0812-.634h-.3619c-.7239 0-1.4478.272-2.0812.634l-38.3657 22.078c-1.4478.815-2.3526 2.353-2.3526 3.982l.0905 59.358c0 .814.4524 1.629 1.1763 1.991.7238.452 1.6287.452 2.2621 0l22.8023-13.03c1.4477-.815 2.3526-2.353 2.3526-3.982v-27.779c0-1.628.9048-3.167 2.3526-3.981l9.6819-5.61c.7239-.452 1.5383-.633 2.3526-.633.8144 0 1.6288.181 2.2622.633l9.6819 5.61c1.4477.814 2.3526 2.353 2.3526 3.981v27.779c0 1.629.9049 3.167 2.3526 3.982l22.8021 13.03c.724.452 1.629.452 2.353 0 .724-.362 1.176-1.177 1.176-1.991z"/><path d="m290.586 113.271c-.723-.361-1.628-.361-2.262 0-.724.453-1.176 1.177-1.176 1.991v58.816c0 .542-.271 1.085-.814 1.447-.543.272-1.086.272-1.629 0l-9.592-5.519c-1.447-.815-3.166-.815-4.614 0l-38.366 22.169c-1.448.814-2.353 2.352-2.353 3.981v44.247c0 1.629.905 3.167 2.353 3.982l38.366 22.168c1.448.815 3.167.815 4.614 0l38.366-22.168c1.448-.815 2.353-2.353 2.353-3.982v-110.301c0-1.72-.905-3.258-2.353-4.072zm-3.528 112.564c0 .452-.181.814-.543.995l-13.121 7.601c-.362.181-.814.181-1.176 0l-13.12-7.601c-.362-.181-.543-.633-.543-.995v-15.201c0-.453.181-.815.543-.996l13.12-7.601c.362-.181.814-.181 1.176 0l13.121 7.601c.362.181.543.634.543.996z"/><path d="m418.261 210.272c1.448-.815 2.262-2.353 2.262-3.982v-10.768c0-1.628-.905-3.167-2.262-3.981l-38.094-22.078c-1.448-.815-3.167-.815-4.615 0l-38.366 22.169c-1.447.814-2.352 2.352-2.352 3.981v44.247c0 1.629.905 3.167 2.352 3.982l38.095 21.716c1.447.814 3.167.814 4.524 0l23.074-12.849c.723-.362 1.176-1.176 1.176-1.991 0-.814-.453-1.628-1.176-1.99l-38.547-22.169c-.724-.453-1.176-1.176-1.176-1.991v-13.844c0-.814.452-1.629 1.176-1.991l12.034-6.877c.724-.452 1.629-.452 2.353 0l12.035 6.877c.723.453 1.176 1.177 1.176 1.991v10.858c0 .815.452 1.629 1.176 1.991.724.452 1.629.452 2.353 0z"/></g><path d="m377.271 208.19c.272-.181.634-.181.905 0l7.33 4.253c.271.181.452.453.452.814v8.506c0 .362-.181.633-.452.814l-7.33 4.253c-.271.181-.633.181-.905 0l-7.329-4.253c-.271-.181-.452-.452-.452-.814v-8.506c0-.361.181-.633.452-.814z" fill="#539e43"/><g mask="url(#k)"><path d="m170.332 169.644c-1.448-.815-3.167-.815-4.615 0l-38.094 21.988c-1.448.814-2.263 2.352-2.263 3.981v44.066c0 1.629.905 3.167 2.263 3.982l38.094 21.988c1.448.814 3.167.814 4.615 0l38.094-21.988c1.448-.815 2.262-2.353 2.262-3.982v-44.066c0-1.629-.905-3.167-2.262-3.981z" fill="url(#e)"/><path d="m208.516 191.632-38.275-21.988c-.362-.181-.814-.362-1.176-.453l-42.89 73.474c.362.453.814.815 1.267 1.086l38.275 21.988c1.086.633 2.353.814 3.529.452l40.266-73.655c-.272-.361-.634-.633-.996-.904z" fill="url(#f)"/><g clip-rule="evenodd" fill-rule="evenodd"><path d="m208.607 243.661c1.086-.634 1.9-1.72 2.262-2.896l-41.985-71.664c-1.086-.181-2.262-.091-3.258.543l-38.003 21.897 40.989 74.741c.543-.09 1.177-.271 1.72-.543z" fill="url(#g)"/><path d="m208.607 243.661-38.185 21.987c-.543.272-1.086.453-1.719.543l.724 1.358 42.347-24.522v-.543l-1.086-1.809c-.181 1.266-.995 2.352-2.081 2.986z" fill="url(#h)"/><path d="m208.607 243.661-38.185 21.987c-.543.272-1.086.453-1.719.543l.724 1.358 42.347-24.522v-.543l-1.086-1.809c-.181 1.266-.995 2.352-2.081 2.986z" fill="url(#i)"/></g></g></svg>