<svg fill="none" height="656" viewBox="0 0 701 656" width="701" xmlns="http://www.w3.org/2000/svg" xmlns:xlink="http://www.w3.org/1999/xlink"><filter id="a" color-interpolation-filters="sRGB" filterUnits="userSpaceOnUse" height="655.827" width="699.933" x=".523193" y="0"><feFlood flood-opacity="0" result="BackgroundImageFix"/><feBlend in="SourceGraphic" in2="BackgroundImageFix" mode="normal" result="shape"/><feGaussianBlur result="effect1_foregroundBlur" stdDeviation="75"/></filter><g filter="url(#a)" opacity=".35"><path d="m479.348 265.33c-4.148-1.428-8.447-2.779-12.874-4.057.728-2.969 1.395-5.9 1.989-8.781 9.746-47.306 3.374-85.416-18.385-97.964-20.863-12.031-54.984.513-89.445 30.503-3.314 2.884-6.637 5.937-9.958 9.137-2.213-2.117-4.423-4.163-6.627-6.12-36.116-32.067-72.316-45.58-94.053-32.997-20.844 12.067-27.016 47.894-18.244 92.726.847 4.331 1.837 8.753 2.957 13.249-5.123 1.454-10.069 3.005-14.802 4.654-42.342 14.763-69.383 37.898-69.383 61.897 0 24.785 29.029 49.645 73.131 64.719 3.481 1.19 7.092 2.314 10.814 3.382-1.209 4.863-2.259 9.628-3.141 14.276-8.365 44.054-1.833 79.035 18.956 91.025 21.472 12.383 57.508-.345 92.599-31.018 2.773-2.425 5.557-4.996 8.345-7.691 3.614 3.48 7.223 6.774 10.812 9.864 33.989 29.248 67.559 41.059 88.328 29.035 21.451-12.417 28.423-49.995 19.372-95.715-.691-3.491-1.496-7.059-2.399-10.689 2.531-.748 5.015-1.521 7.437-2.324 45.849-15.191 75.679-39.748 75.679-64.864 0-24.085-27.913-47.377-71.108-62.247zm-9.944 110.894c-2.187.724-4.43 1.424-6.717 2.102-5.061-16.023-11.893-33.062-20.252-50.666 7.977-17.185 14.544-34.006 19.464-49.925 4.091 1.183 8.062 2.432 11.888 3.75 37.009 12.74 59.584 31.577 59.584 46.092 0 15.46-24.38 35.53-63.967 48.647zm-16.426 32.548c4.003 20.217 4.574 38.495 1.923 52.784-2.382 12.839-7.172 21.399-13.095 24.828-12.603 7.295-39.557-2.188-68.625-27.202-3.332-2.867-6.688-5.929-10.055-9.169 11.269-12.325 22.531-26.653 33.523-42.565 19.334-1.716 37.6-4.521 54.165-8.35.815 3.291 1.54 6.519 2.164 9.674zm-166.109 76.351c-12.314 4.349-22.121 4.474-28.05 1.055-12.615-7.276-17.859-35.362-10.706-73.038.82-4.314 1.795-8.746 2.919-13.277 16.383 3.623 34.515 6.23 53.896 7.801 11.066 15.571 22.654 29.883 34.331 42.415-2.551 2.463-5.093 4.808-7.62 7.018-15.516 13.563-31.066 23.186-44.77 28.026zm-57.689-108.994c-19.501-6.665-35.606-15.328-46.645-24.781-9.919-8.495-14.928-16.928-14.928-23.771 0-14.563 21.712-33.138 57.923-45.763 4.394-1.532 8.993-2.976 13.766-4.332 5.005 16.279 11.57 33.299 19.492 50.51-8.025 17.467-14.683 34.758-19.737 51.228-3.402-.978-6.699-2.007-9.871-3.091zm19.338-131.633c-7.516-38.411-2.524-67.387 10.037-74.658 13.379-7.746 42.966 3.298 74.149 30.986 1.993 1.77 3.994 3.622 6.001 5.539-11.62 12.477-23.102 26.681-34.07 42.16-18.809 1.744-36.814 4.544-53.368 8.295-1.041-4.187-1.963-8.3-2.749-12.322zm172.513 42.598c-3.957-6.835-8.02-13.509-12.162-20.001 12.761 1.614 24.986 3.755 36.467 6.375-3.446 11.047-7.743 22.597-12.8 34.438-3.627-6.887-7.464-13.832-11.505-20.812zm-70.35-68.521c7.88 8.537 15.772 18.069 23.534 28.411-7.822-.369-15.741-.561-23.725-.561-7.909 0-15.77.188-23.543.551 7.77-10.246 15.73-19.766 23.734-28.401zm-70.801 68.639c-3.954 6.855-7.719 13.762-11.29 20.681-4.975-11.799-9.232-23.402-12.709-34.606 11.411-2.553 23.579-4.641 36.258-6.223-4.2 6.551-8.296 13.274-12.259 20.147zm12.625 102.096c-13.1-1.461-25.451-3.442-36.859-5.925 3.532-11.403 7.882-23.254 12.963-35.307 3.58 6.914 7.361 13.824 11.338 20.693h.001c4.051 6.999 8.248 13.854 12.557 20.539zm58.648 48.477c-8.097-8.737-16.174-18.401-24.063-28.797 7.658.3 15.465.454 23.4.454 8.151 0 16.21-.183 24.142-.537-7.788 10.583-15.652 20.263-23.479 28.88zm81.546-90.324c5.346 12.184 9.852 23.973 13.43 35.182-11.596 2.645-24.116 4.776-37.307 6.359 4.152-6.579 8.25-13.367 12.277-20.35 4.074-7.065 7.943-14.14 11.6-21.191zm-26.399 12.655c-6.252 10.84-12.67 21.188-19.186 30.956-11.867.848-24.128 1.285-36.624 1.285-12.446 0-24.552-.386-36.21-1.143-6.778-9.896-13.336-20.274-19.548-31.004h.002c-6.196-10.701-11.898-21.493-17.065-32.223 5.166-10.756 10.853-21.56 17.013-32.241l-.002.002c6.176-10.71 12.676-21.038 19.392-30.872 11.894-.899 24.091-1.368 36.417-1.368h.001c12.381 0 24.594.472 36.484 1.379 6.613 9.762 13.069 20.057 19.27 30.768 6.271 10.832 12.031 21.564 17.241 32.089-5.194 10.706-10.942 21.545-17.185 32.372zm35.244-190.787c13.393 7.724 18.601 38.871 10.187 79.715-.537 2.606-1.142 5.261-1.798 7.951-16.592-3.829-34.61-6.678-53.474-8.447-10.989-15.649-22.377-29.876-33.808-42.193 3.074-2.957 6.142-5.776 9.199-8.436 29.525-25.695 57.121-35.84 69.694-28.59zm-91.054 122.535c19.723 0 35.712 15.989 35.712 35.713 0 19.723-15.989 35.712-35.712 35.712s-35.713-15.989-35.713-35.712c0-19.724 15.99-35.713 35.713-35.713z" fill="#00d8ff"/></g><path d="m507.348 229.33c-4.148-1.428-8.447-2.779-12.874-4.057.728-2.969 1.395-5.9 1.989-8.781 9.746-47.306 3.374-85.416-18.385-97.964-20.863-12.031-54.984.513-89.445 30.503-3.314 2.884-6.637 5.937-9.958 9.137-2.213-2.117-4.423-4.163-6.627-6.12-36.116-32.067-72.316-45.58-94.053-32.997-20.844 12.067-27.016 47.894-18.244 92.726.847 4.331 1.837 8.753 2.957 13.249-5.123 1.454-10.069 3.005-14.802 4.654-42.342 14.763-69.383 37.898-69.383 61.897 0 24.785 29.029 49.645 73.131 64.719 3.481 1.19 7.092 2.314 10.814 3.382-1.209 4.863-2.259 9.628-3.141 14.276-8.365 44.054-1.833 79.035 18.956 91.025 21.472 12.383 57.508-.345 92.599-31.018 2.773-2.425 5.557-4.996 8.345-7.691 3.614 3.48 7.223 6.774 10.812 9.864 33.989 29.248 67.559 41.059 88.328 29.035 21.451-12.417 28.423-49.995 19.372-95.715-.691-3.491-1.496-7.059-2.399-10.689 2.531-.748 5.015-1.521 7.437-2.324 45.849-15.191 75.679-39.748 75.679-64.864 0-24.085-27.913-47.377-71.108-62.247zm-9.944 110.894c-2.187.724-4.43 1.424-6.717 2.102-5.061-16.023-11.893-33.062-20.252-50.666 7.977-17.185 14.544-34.006 19.464-49.925 4.091 1.183 8.062 2.432 11.888 3.75 37.009 12.74 59.584 31.577 59.584 46.092 0 15.46-24.38 35.53-63.967 48.647zm-16.426 32.548c4.003 20.217 4.574 38.495 1.923 52.784-2.382 12.839-7.172 21.399-13.095 24.828-12.603 7.295-39.557-2.188-68.625-27.202-3.332-2.867-6.688-5.929-10.055-9.169 11.269-12.325 22.531-26.653 33.523-42.565 19.334-1.716 37.6-4.521 54.165-8.35.815 3.291 1.54 6.519 2.164 9.674zm-166.109 76.351c-12.314 4.349-22.121 4.474-28.05 1.055-12.615-7.276-17.859-35.362-10.706-73.038.82-4.314 1.795-8.746 2.919-13.277 16.383 3.623 34.515 6.23 53.896 7.801 11.066 15.571 22.654 29.883 34.331 42.415-2.551 2.463-5.093 4.808-7.62 7.018-15.516 13.563-31.066 23.186-44.77 28.026zm-57.689-108.994c-19.501-6.665-35.606-15.328-46.645-24.781-9.919-8.495-14.928-16.928-14.928-23.771 0-14.563 21.712-33.138 57.923-45.763 4.394-1.532 8.993-2.976 13.766-4.332 5.005 16.279 11.57 33.299 19.492 50.51-8.025 17.467-14.683 34.758-19.737 51.228-3.402-.978-6.699-2.007-9.871-3.091zm19.338-131.633c-7.516-38.411-2.524-67.387 10.037-74.658 13.379-7.746 42.966 3.298 74.149 30.986 1.993 1.77 3.994 3.622 6.001 5.539-11.62 12.477-23.102 26.681-34.07 42.16-18.809 1.744-36.814 4.544-53.368 8.295-1.041-4.187-1.963-8.3-2.749-12.322zm172.513 42.598c-3.957-6.835-8.02-13.509-12.162-20.001 12.761 1.614 24.986 3.755 36.467 6.375-3.446 11.047-7.743 22.597-12.8 34.438-3.627-6.887-7.464-13.832-11.505-20.812zm-70.35-68.521c7.88 8.537 15.772 18.069 23.534 28.411-7.822-.369-15.741-.561-23.725-.561-7.909 0-15.77.188-23.543.551 7.77-10.246 15.73-19.766 23.734-28.401zm-70.801 68.639c-3.954 6.855-7.719 13.762-11.29 20.681-4.975-11.799-9.232-23.402-12.709-34.606 11.411-2.553 23.579-4.641 36.258-6.223-4.2 6.551-8.296 13.274-12.259 20.147zm12.625 102.096c-13.1-1.461-25.451-3.442-36.859-5.925 3.532-11.403 7.882-23.254 12.963-35.307 3.58 6.914 7.361 13.824 11.338 20.693h.001c4.051 6.999 8.248 13.854 12.557 20.539zm58.648 48.477c-8.097-8.737-16.174-18.401-24.063-28.797 7.658.3 15.465.454 23.4.454 8.151 0 16.21-.183 24.142-.537-7.788 10.583-15.652 20.263-23.479 28.88zm81.546-90.324c5.346 12.184 9.852 23.973 13.43 35.182-11.596 2.645-24.116 4.776-37.307 6.359 4.152-6.579 8.25-13.367 12.277-20.35 4.074-7.065 7.943-14.14 11.6-21.191zm-26.399 12.655c-6.252 10.84-12.67 21.188-19.186 30.956-11.867.848-24.128 1.285-36.624 1.285-12.446 0-24.552-.386-36.21-1.143-6.778-9.896-13.336-20.274-19.548-31.004h.002c-6.196-10.701-11.898-21.493-17.065-32.223 5.166-10.756 10.853-21.56 17.013-32.241l-.002.002c6.176-10.71 12.676-21.038 19.392-30.872 11.894-.899 24.091-1.368 36.417-1.368h.001c12.381 0 24.594.472 36.484 1.379 6.613 9.762 13.069 20.057 19.27 30.768 6.271 10.832 12.031 21.564 17.241 32.089-5.194 10.706-10.942 21.545-17.185 32.372zm35.244-190.787c13.393 7.724 18.601 38.871 10.187 79.715-.537 2.606-1.142 5.261-1.798 7.951-16.592-3.829-34.61-6.678-53.474-8.447-10.989-15.649-22.377-29.876-33.808-42.193 3.074-2.957 6.142-5.776 9.199-8.436 29.525-25.695 57.121-35.84 69.694-28.59zm-91.054 122.535c19.723 0 35.712 15.989 35.712 35.713 0 19.723-15.989 35.712-35.712 35.712s-35.713-15.989-35.713-35.712c0-19.724 15.99-35.713 35.713-35.713z" fill="#00d8ff"/></svg>