<svg width="700" height="600" viewBox="0 0 700 600" fill="none" xmlns="http://www.w3.org/2000/svg">
<g filter="url(#filter0_f)">
<path d="M494.431 322.445C480.477 322.518 468.348 325.878 458.193 330.847C454.467 323.467 450.741 316.892 450.083 312.07C449.352 306.444 448.476 303.01 449.352 296.289C450.229 289.567 454.174 279.996 454.101 279.265C454.028 278.535 453.225 275.101 445.188 275.028C437.151 274.955 430.21 276.562 429.407 278.681C428.603 280.799 427.069 285.622 426.046 290.59C424.658 297.896 409.972 323.979 401.57 337.641C398.867 332.308 396.529 327.632 396.017 323.906C395.287 318.28 394.41 314.846 395.287 308.124C396.164 301.403 400.109 291.832 400.036 291.101C399.963 290.371 399.159 286.937 391.122 286.864C383.086 286.791 376.145 288.398 375.341 290.517C374.537 292.635 373.661 297.604 371.98 302.426C370.3 307.248 350.792 350.792 345.678 362.044C343.048 367.816 340.783 372.419 339.176 375.56C339.176 375.56 339.102 375.779 338.883 376.145C337.495 378.848 336.691 380.309 336.691 380.309C336.691 380.309 336.691 380.309 336.691 380.382C335.596 382.355 334.427 384.182 333.842 384.182C333.404 384.182 332.6 378.921 333.988 371.761C336.911 356.637 343.851 333.112 343.778 332.308C343.778 331.869 345.094 327.778 339.249 325.659C333.55 323.54 331.504 327.047 330.993 327.047C330.481 327.047 330.116 328.289 330.116 328.289C330.116 328.289 336.472 301.841 317.988 301.841C306.444 301.841 290.517 314.481 282.626 325.878C277.658 328.582 267.064 334.354 255.739 340.564C251.429 342.975 246.972 345.386 242.807 347.651C242.515 347.359 242.223 346.993 241.931 346.701C219.574 322.81 178.221 305.933 179.974 273.859C180.632 262.169 184.65 231.483 259.392 194.222C320.91 163.901 369.861 172.303 378.337 190.934C390.465 217.528 352.107 266.918 288.544 274.078C264.287 276.781 251.575 267.429 248.36 263.922C244.999 260.269 244.488 260.05 243.246 260.781C241.2 261.877 242.515 265.164 243.246 267.064C245.145 272.032 252.963 280.799 266.187 285.11C277.877 288.909 306.298 291.028 340.71 277.731C379.213 262.826 409.315 221.4 400.474 186.696C391.634 151.481 333.184 139.864 277.877 159.517C244.999 171.207 209.345 189.619 183.701 213.583C153.234 242.077 148.412 266.845 150.384 277.219C157.471 314.042 208.249 338.007 228.56 355.761C227.537 356.345 226.588 356.857 225.784 357.295C215.628 362.336 176.906 382.574 167.262 403.981C156.302 428.238 169.015 445.626 177.417 447.964C203.5 455.197 230.314 442.192 244.707 420.712C259.1 399.232 257.347 371.323 250.698 358.537C250.625 358.391 250.552 358.245 250.406 358.099C253.036 356.564 255.739 354.957 258.369 353.423C263.557 350.354 268.671 347.505 273.055 345.167C270.571 351.961 268.744 360.071 267.867 371.761C266.772 385.497 272.397 403.324 279.776 410.338C283.064 413.406 286.937 413.479 289.421 413.479C298.042 413.479 301.914 406.319 306.225 397.844C311.485 387.469 316.234 375.414 316.234 375.414C316.234 375.414 310.316 408 326.39 408C332.235 408 338.153 400.401 340.783 396.529V396.602C340.783 396.602 340.929 396.383 341.221 395.871C341.806 394.922 342.171 394.337 342.171 394.337V394.191C344.509 390.1 349.769 380.821 357.587 365.405C367.67 345.532 377.387 320.691 377.387 320.691C377.387 320.691 378.263 326.755 381.259 336.838C383.012 342.756 386.666 349.258 389.588 355.541C387.25 358.829 385.789 360.656 385.789 360.656C385.789 360.656 385.789 360.656 385.862 360.729C383.962 363.213 381.917 365.916 379.652 368.546C371.688 378.044 362.19 388.931 360.875 392.072C359.341 395.798 359.706 398.502 362.628 400.693C364.747 402.301 368.546 402.52 372.419 402.301C379.579 401.789 384.62 400.036 387.104 398.94C390.976 397.552 395.506 395.433 399.744 392.291C407.561 386.52 412.31 378.264 411.872 367.377C411.653 361.386 409.68 355.395 407.269 349.77C408 348.747 408.657 347.724 409.388 346.701C421.735 328.655 431.306 308.855 431.306 308.855C431.306 308.855 432.183 314.919 435.178 325.002C436.64 330.116 439.635 335.669 442.265 341.075C430.649 350.5 423.489 361.459 420.931 368.619C416.329 381.917 419.909 387.908 426.703 389.296C429.772 389.953 434.156 388.492 437.37 387.104C441.462 385.789 446.284 383.524 450.887 380.163C458.704 374.391 466.23 366.355 465.791 355.468C465.572 350.5 464.257 345.605 462.43 340.856C472.294 336.765 485.006 334.5 501.226 336.399C536.003 340.491 542.871 362.19 541.556 371.323C540.241 380.455 532.935 385.424 530.524 386.958C528.113 388.492 527.309 389.004 527.528 390.1C527.82 391.707 528.989 391.634 531.035 391.342C533.885 390.83 549.301 383.962 549.958 367.158C551.054 345.678 530.597 322.225 494.431 322.445ZM226.149 412.895C214.606 425.461 198.532 430.21 191.591 426.192C184.139 421.881 187.061 403.324 201.235 390.026C209.857 381.917 220.962 374.391 228.341 369.788C230.022 368.766 232.506 367.304 235.501 365.478C236.013 365.186 236.305 365.039 236.305 365.039C236.889 364.674 237.474 364.309 238.058 363.943C243.246 382.939 238.278 399.671 226.149 412.895ZM310.17 355.761C306.152 365.551 297.75 390.611 292.635 389.223C288.252 388.054 285.548 369.058 291.759 350.281C294.9 340.856 301.549 329.605 305.421 325.221C311.704 318.207 318.645 315.869 320.326 318.718C322.444 322.445 312.654 349.623 310.17 355.761ZM379.506 388.931C377.825 389.807 376.218 390.392 375.487 389.953C374.976 389.661 376.218 388.492 376.218 388.492C376.218 388.492 384.912 379.14 388.346 374.903C390.319 372.419 392.657 369.496 395.141 366.208V367.158C395.141 378.337 384.328 385.862 379.506 388.931ZM432.987 376.729C431.745 375.853 431.964 372.93 436.128 363.797C437.736 360.217 441.535 354.226 448.037 348.454C448.768 350.792 449.279 353.057 449.206 355.176C449.133 369.277 439.051 374.537 432.987 376.729Z" fill="#CD6799"/>
</g>
<path d="M494.431 322.445C480.477 322.518 468.348 325.878 458.193 330.847C454.467 323.467 450.741 316.892 450.083 312.07C449.352 306.444 448.476 303.01 449.352 296.289C450.229 289.567 454.174 279.996 454.101 279.265C454.028 278.535 453.225 275.101 445.188 275.028C437.151 274.955 430.21 276.562 429.407 278.681C428.603 280.799 427.069 285.622 426.046 290.59C424.658 297.896 409.972 323.979 401.57 337.641C398.867 332.308 396.529 327.632 396.017 323.906C395.287 318.28 394.41 314.846 395.287 308.124C396.164 301.403 400.109 291.832 400.036 291.101C399.963 290.371 399.159 286.937 391.122 286.864C383.086 286.791 376.145 288.398 375.341 290.517C374.537 292.635 373.661 297.604 371.98 302.426C370.3 307.248 350.792 350.792 345.678 362.044C343.048 367.816 340.783 372.419 339.176 375.56C339.176 375.56 339.102 375.779 338.883 376.145C337.495 378.848 336.691 380.309 336.691 380.309C336.691 380.309 336.691 380.309 336.691 380.382C335.596 382.355 334.427 384.182 333.842 384.182C333.404 384.182 332.6 378.921 333.988 371.761C336.911 356.637 343.851 333.112 343.778 332.308C343.778 331.869 345.094 327.778 339.249 325.659C333.55 323.54 331.504 327.047 330.993 327.047C330.481 327.047 330.116 328.289 330.116 328.289C330.116 328.289 336.472 301.841 317.988 301.841C306.444 301.841 290.517 314.481 282.626 325.878C277.658 328.582 267.064 334.354 255.739 340.564C251.429 342.975 246.972 345.386 242.807 347.651C242.515 347.359 242.223 346.993 241.931 346.701C219.574 322.81 178.221 305.933 179.974 273.859C180.632 262.169 184.65 231.483 259.392 194.222C320.91 163.901 369.861 172.303 378.337 190.934C390.465 217.528 352.107 266.918 288.544 274.078C264.287 276.781 251.575 267.429 248.36 263.922C244.999 260.269 244.488 260.05 243.246 260.781C241.2 261.877 242.515 265.164 243.246 267.064C245.145 272.032 252.963 280.799 266.187 285.11C277.877 288.909 306.298 291.028 340.71 277.731C379.213 262.826 409.315 221.4 400.474 186.696C391.634 151.481 333.184 139.864 277.877 159.517C244.999 171.207 209.345 189.619 183.701 213.583C153.234 242.077 148.412 266.845 150.384 277.219C157.471 314.042 208.249 338.007 228.56 355.761C227.537 356.345 226.588 356.857 225.784 357.295C215.628 362.336 176.906 382.574 167.262 403.981C156.302 428.238 169.015 445.626 177.417 447.964C203.5 455.197 230.314 442.192 244.707 420.712C259.1 399.232 257.347 371.323 250.698 358.537C250.625 358.391 250.552 358.245 250.406 358.099C253.036 356.564 255.739 354.957 258.369 353.423C263.557 350.354 268.671 347.505 273.055 345.167C270.571 351.961 268.744 360.071 267.867 371.761C266.772 385.497 272.397 403.324 279.776 410.338C283.064 413.406 286.937 413.479 289.421 413.479C298.042 413.479 301.914 406.319 306.225 397.844C311.485 387.469 316.234 375.414 316.234 375.414C316.234 375.414 310.316 408 326.39 408C332.235 408 338.153 400.401 340.783 396.529V396.602C340.783 396.602 340.929 396.383 341.221 395.871C341.806 394.922 342.171 394.337 342.171 394.337V394.191C344.509 390.1 349.769 380.821 357.587 365.405C367.67 345.532 377.387 320.691 377.387 320.691C377.387 320.691 378.263 326.755 381.259 336.838C383.012 342.756 386.666 349.258 389.588 355.541C387.25 358.829 385.789 360.656 385.789 360.656C385.789 360.656 385.789 360.656 385.862 360.729C383.962 363.213 381.917 365.916 379.652 368.546C371.688 378.044 362.19 388.931 360.875 392.072C359.341 395.798 359.706 398.502 362.628 400.693C364.747 402.301 368.546 402.52 372.419 402.301C379.579 401.789 384.62 400.036 387.104 398.94C390.976 397.552 395.506 395.433 399.744 392.291C407.561 386.52 412.31 378.264 411.872 367.377C411.653 361.386 409.68 355.395 407.269 349.77C408 348.747 408.657 347.724 409.388 346.701C421.735 328.655 431.306 308.855 431.306 308.855C431.306 308.855 432.183 314.919 435.178 325.002C436.64 330.116 439.635 335.669 442.265 341.075C430.649 350.5 423.489 361.459 420.931 368.619C416.329 381.917 419.909 387.908 426.703 389.296C429.772 389.953 434.156 388.492 437.37 387.104C441.462 385.789 446.284 383.524 450.887 380.163C458.704 374.391 466.23 366.355 465.791 355.468C465.572 350.5 464.257 345.605 462.43 340.856C472.294 336.765 485.006 334.5 501.226 336.399C536.003 340.491 542.871 362.19 541.556 371.323C540.241 380.455 532.935 385.424 530.524 386.958C528.113 388.492 527.309 389.004 527.528 390.1C527.82 391.707 528.989 391.634 531.035 391.342C533.885 390.83 549.301 383.962 549.958 367.158C551.054 345.678 530.597 322.225 494.431 322.445ZM226.149 412.895C214.606 425.461 198.532 430.21 191.591 426.192C184.139 421.881 187.061 403.324 201.235 390.026C209.857 381.917 220.962 374.391 228.341 369.788C230.022 368.766 232.506 367.304 235.501 365.478C236.013 365.186 236.305 365.039 236.305 365.039C236.889 364.674 237.474 364.309 238.058 363.943C243.246 382.939 238.278 399.671 226.149 412.895ZM310.17 355.761C306.152 365.551 297.75 390.611 292.635 389.223C288.252 388.054 285.548 369.058 291.759 350.281C294.9 340.856 301.549 329.605 305.421 325.221C311.704 318.207 318.645 315.869 320.326 318.718C322.444 322.445 312.654 349.623 310.17 355.761ZM379.506 388.931C377.825 389.807 376.218 390.392 375.487 389.953C374.976 389.661 376.218 388.492 376.218 388.492C376.218 388.492 384.912 379.14 388.346 374.903C390.319 372.419 392.657 369.496 395.141 366.208V367.158C395.141 378.337 384.328 385.862 379.506 388.931ZM432.987 376.729C431.745 375.853 431.964 372.93 436.128 363.797C437.736 360.217 441.535 354.226 448.037 348.454C448.768 350.792 449.279 353.057 449.206 355.176C449.133 369.277 439.051 374.537 432.987 376.729Z" fill="#CD6799"/>
<defs>
<filter id="filter0_f" x="0" y="0" width="700" height="599.976" filterUnits="userSpaceOnUse" color-interpolation-filters="sRGB">
<feFlood flood-opacity="0" result="BackgroundImageFix"/>
<feBlend mode="normal" in="SourceGraphic" in2="BackgroundImageFix" result="shape"/>
<feGaussianBlur stdDeviation="75" result="effect1_foregroundBlur"/>
</filter>
</defs>
</svg>
