<svg fill="none" height="645" viewBox="0 0 701 645" width="701" xmlns="http://www.w3.org/2000/svg" xmlns:xlink="http://www.w3.org/1999/xlink"><filter id="a" color-interpolation-filters="sRGB" filterUnits="userSpaceOnUse" height="645" width="700" x=".523193" y="0"><feFlood flood-opacity="0" result="BackgroundImageFix"/><feBlend in="SourceGraphic" in2="BackgroundImageFix" mode="normal" result="shape"/><feGaussianBlur result="effect1_foregroundBlur" stdDeviation="75"/></filter><g filter="url(#a)" opacity=".45"><path d="m470.523 150h80l-200 345-200-345h79 74l47 80 46-80z" fill="#41b883"/><path d="m150.523 150 200 345 200-345h-80l-120 207-121-207z" fill="#41b883"/><path d="m229.523 150 121 208 120-208h-74l-46 80-47-80z" fill="#35495e"/></g><path d="m481.523 120h80l-200 345-200-345h79 74l47 80 46-80z" fill="#41b883"/><path d="m161.523 120 200 345 200-345h-80l-120 207-121-207z" fill="#41b883"/><path d="m240.523 120 121 208 120-208h-74l-46 80-47-80z" fill="#35495e"/></svg>