<svg fill="none" height="698" viewBox="0 0 652 698" width="652" xmlns="http://www.w3.org/2000/svg" xmlns:xlink="http://www.w3.org/1999/xlink"><filter id="a" color-interpolation-filters="sRGB" filterUnits="userSpaceOnUse" height="697.16" width="651" x=".523193" y="0"><feFlood flood-opacity="0" result="BackgroundImageFix"/><feBlend in="SourceGraphic" in2="BackgroundImageFix" mode="normal" result="shape"/><feGaussianBlur result="effect1_foregroundBlur" stdDeviation="75"/></filter><g filter="url(#a)" opacity=".6"><path d="m326.023 150 175.5 99.273v198.613l-175.5 99.274-175.5-99.274v-198.613z" fill="#fff"/><path d="m470.198 440.999-138.347 78.346v-60.929l86.227-47.484zm9.471-8.543v-163.712l-50.597 29.206v105.3zm-298.35 8.543 138.347 78.28v-60.929l-86.227-47.418zm-9.471-8.543v-163.712l50.597 29.206v105.3zm5.894-174.308 141.924-80.267v58.942l-90.929 50.001-.729.397zm295.966 0-141.857-80.267v58.942l90.863 50.067.728.397z" fill="#8ed6fb"/><path d="m319.665 444.509-85.034-46.822v-92.651l85.034 49.074zm12.186 0 85.035-46.756v-92.717l-85.035 49.074zm-91.525-150.202 85.432-46.954 85.366 46.954-85.366 49.273z" fill="#1c78c0"/></g><path d="m357.023 107 175.5 99.273v198.613l-175.5 99.274-175.5-99.274v-198.613z" fill="#fff"/><path d="m501.198 397.999-138.347 78.346v-60.929l86.227-47.484zm9.471-8.543v-163.712l-50.597 29.206v105.3zm-298.35 8.543 138.347 78.28v-60.929l-86.227-47.418zm-9.471-8.543v-163.712l50.597 29.206v105.3zm5.894-174.308 141.924-80.267v58.942l-90.929 50.001-.729.397zm295.966 0-141.857-80.267v58.942l90.863 50.067.728.397z" fill="#8ed6fb"/><path d="m350.665 401.509-85.034-46.822v-92.651l85.034 49.074zm12.186 0 85.035-46.756v-92.717l-85.035 49.074zm-91.525-150.202 85.432-46.954 85.366 46.954-85.366 49.273z" fill="#1c78c0"/></svg>